<svg xlink="http://www.w3.org/1999/xlink" viewBox="0 0 5000 5000" xmlns="http://www.w3.org/2000/svg" style="transform: scale(1.28);"><defs><filter id="goo"><feGaussianBlur in="SourceGraphic" stdDeviation="25" result="blur"></feGaussianBlur><feColorMatrix in="blur" type="matrix" values="1 0 0 0 0 0 1 0 0 0 0 0 1 0 0 0 0 0 19 -9" result="good"></feColorMatrix><feComposite in="SourceGraphic" in2="goo" operator="atop"></feComposite></filter><path d="M348,218C359,257 349,296 325,321C302,345 270,356 231,351C191,342 162,314 152,282C141,243 151,204 175,179C198,155 230,144 269,149C309,158 338,186 348,218z" id="P0"></path><path d="M331,378L98,260L323,117L331,378z" id="P1"></path><path d="M142,120L380,142L358,380L120,358L142,120z" id="P2"></path><path d="M436,215L341,416L121,388L79,170L274,62L436,215z" id="P3"></path><path d="M191,101L352,127L409,270L309,399L148,373L91,230L191,101z" id="P4"></path><path d="M151,256C150,218 169,183 197,166C224,149 257,146 292,160C326,178 348,211 349,244C350,282 331,317 303,334C276,351 243,354 208,340C174,322 152,289 151,256z" id="P5"></path><path d="M276,150L325,321L150,276L276,150z" id="P6"></path><path d="M214,159L341,214L286,341L159,286L214,159z" id="P7"></path><path d="M420,183L367,391L152,405L73,204L239,67L420,183z" id="P8"></path><path d="M365,235L318,344L207,358L135,265L182,156L293,142L365,235z" id="P9"></path><path d="M167,277C158,244 167,211 187,190C206,170 233,160 266,165C299,172 325,196 333,223C342,256 333,289 313,310C294,330 267,340 234,335C201,328 175,304 167,277z" id="P10"></path><path d="M276,115L356,337L120,292L276,115z" id="P11"></path><path d="M260,85L415,260L240,415L85,240L260,85z" id="P12"></path><path d="M191,124L351,155L372,317L224,387L112,267L191,124z" id="P13"></path><path d="M140,271L179,164L285,143L360,229L321,336L215,357L140,271z" id="P14"></path></defs><rect id="RECT" width="5000" height="5000" fill="#FFFFFF"></rect><g id="group" fill="#5639E9" filter="url(#goo)" opacity="0.17"><use x="239" y="358" href="#P6"></use><use x="1184" y="2940" href="#P1"></use><use x="-31" y="4555" href="#P12"></use><use x="21" y="5366" href="#P12"></use><use x="1657" y="96" href="#P7"></use><use x="2466" y="2341" href="#P7"></use><use x="2569" y="4938" href="#P10"></use><use x="2142" y="5824" href="#P7"></use><use x="5151" y="801" href="#P0"></use><use x="5128" y="1123" href="#P4"></use><use x="4119" y="4178" href="#P3"></use><use x="5083" y="5003" href="#P11"></use></g></svg>