<svg xlink="http://www.w3.org/1999/xlink" viewBox="0 0 5000 5000" xmlns="http://www.w3.org/2000/svg" style="transform: scale(1);"><defs><filter id="goo"><feGaussianBlur in="SourceGraphic" stdDeviation="0" result="blur"></feGaussianBlur><feColorMatrix in="blur" type="matrix" values="1 0 0 0 0 0 1 0 0 0 0 0 1 0 0 0 0 0 19 -9" result="good"></feColorMatrix><feComposite in="SourceGraphic" in2="goo" operator="atop"></feComposite></filter><path d="M139,368C95,323 79,261 93,210C106,159 142,119 200,96C261,79 323,95 361,132C405,177 421,239 407,290C394,341 358,381 300,404C239,421 177,405 139,368z" id="P0"></path><path d="M284,426L80,195L388,136L284,426z" id="P1"></path><path d="M289,400L100,289L211,100L400,211L289,400z" id="P2"></path><path d="M76,307L142,102L358,102L424,307L250,433L76,307z" id="P3"></path><path d="M137,205L235,129L344,172L363,295L265,371L156,328L137,205z" id="P4"></path><path d="M84,356C45,289 45,211 77,155C108,99 162,63 238,53C315,51 383,89 416,144C455,211 455,289 423,345C392,401 338,437 262,447C185,449 117,411 84,356z" id="P5"></path><path d="M170,325L223,143L355,284L170,325z" id="P6"></path><path d="M274,376L124,274L226,124L376,226L274,376z" id="P7"></path><path d="M260,88L407,210L337,387L147,375L99,190L260,88z" id="P8"></path><path d="M234,374L134,296L149,177L266,126L366,204L351,323L234,374z" id="P9"></path></defs><rect id="RECT" width="5000" height="5000" fill="#FFFFFF"></rect><g id="group" fill="#7B1AF8" filter="" opacity="0.21"><use x="682" y="746" href="#P2"></use><use x="488" y="2519" href="#P6"></use><use x="387" y="4834" href="#P3"></use><use x="2909" y="939" href="#P3"></use><use x="5035" y="1797" href="#P7"></use><use x="4963" y="4747" href="#P5"></use></g></svg>