<svg width="146" height="122" viewBox="0 0 146 122" fill="none" xmlns="http://www.w3.org/2000/svg">
<path d="M110.066 20.6134V103.896C110.066 113.525 117.873 121.333 127.504 121.333C137.134 121.333 144.94 113.525 144.94 103.896V20.6134C144.94 10.984 137.134 3.17736 127.504 3.17736C117.873 3.17736 110.066 10.984 110.066 20.6134Z" fill="url(#paint0_linear_32_3)"/>
<g opacity="0.449997">
<g opacity="0.449997">
<path opacity="0.449997" d="M127.503 3.17709C137.134 3.17709 144.941 10.9838 144.941 20.6131V35.0238L110.066 62.3264V20.6131C110.066 10.9838 117.873 3.17709 127.503 3.17709Z" fill="#002894"/>
</g>
</g>
<g opacity="0.5">
<g opacity="0.5">
<path opacity="0.5" d="M140.73 9.27078C143.348 12.3214 144.94 16.2788 144.94 20.6134V103.896C144.94 108.232 143.348 112.188 140.73 115.24V9.27078Z" fill="white"/>
</g>
</g>
<g opacity="0.300003">
<g opacity="0.300003">
<path opacity="0.300003" d="M110.067 103.896V20.6132C110.067 10.9839 117.873 3.17724 127.504 3.17724V121.333C117.873 121.333 110.067 113.527 110.067 103.896Z" fill="#002894"/>
</g>
</g>
<path d="M0.957184 20.6134V103.896C0.957184 113.525 8.76518 121.333 18.3945 121.333C28.0252 121.333 35.8318 113.525 35.8318 103.896V20.6134C35.8318 10.984 28.0252 3.17736 18.3945 3.17736C8.76518 3.17736 0.957184 10.984 0.957184 20.6134Z" fill="url(#paint1_linear_32_3)"/>
<g opacity="0.449997">
<g opacity="0.449997">
<path opacity="0.449997" d="M18.3953 3.17709C8.76461 3.17709 0.957947 10.9838 0.957947 20.6131V35.0238L35.8326 62.3264V20.6131C35.8326 10.9838 28.0259 3.17709 18.3953 3.17709Z" fill="#002894"/>
</g>
</g>
<g opacity="0.5">
<g opacity="0.5">
<path opacity="0.5" d="M5.16864 9.27078C2.54998 12.3214 0.957977 16.2788 0.957977 20.6134V103.896C0.957977 108.232 2.54998 112.188 5.16864 115.24V9.27078Z" fill="white"/>
</g>
</g>
<g opacity="0.300003">
<g opacity="0.300003">
<path opacity="0.300003" d="M35.832 103.896V20.6132C35.832 10.9839 28.0254 3.17724 18.3947 3.17724V121.333C28.0254 121.333 35.832 113.527 35.832 103.896Z" fill="#002894"/>
</g>
</g>
<path d="M0.957184 20.6133V20.6146L60.5012 91.8333C67.3092 98.6426 78.3492 98.6426 85.1598 91.8333C91.9678 85.0226 91.9678 73.9826 85.1598 67.1746L36.1198 6.10796C31.9252 1.88929 26.7532 -3.34066e-05 21.6812 -3.34066e-05C11.1052 -0.00136674 0.957184 8.20665 0.957184 20.6133" fill="url(#paint2_linear_32_3)"/>
<g opacity="0.5">
<g opacity="0.5">
<path opacity="0.5" d="M36.1198 6.10818C32.3638 2.32952 27.8252 0.43085 23.2758 0.0735167L89.9838 82.5775C90.9505 77.1535 89.3492 71.3628 85.1598 67.1748L36.1198 6.10818Z" fill="white"/>
</g>
</g>
<g opacity="0.300003">
<g opacity="0.300003">
<path opacity="0.300003" d="M9.1225 4.19397C4.29316 7.79263 0.958496 13.51 0.958496 20.6126L60.4998 91.8326C66.6185 97.95 76.1412 98.554 82.9532 93.678L9.1225 4.19397Z" fill="#4A3FFB"/>
</g>
</g>
<g opacity="0.399994">
<g opacity="0.399994">
<path opacity="0.399994" d="M72.5403 51.4609L46.9577 75.6356L52.7443 82.5569L72.5403 51.4609Z" fill="#4A3FFB"/>
</g>
</g>
<path d="M109.928 6.10805L50 79.0947L60.7947 91.9774C67.6027 98.7854 78.7387 98.6427 85.548 91.8334L145.089 20.6147V20.6134C145.089 8.20673 134.943 -0.00127669 124.368 5.6645e-05C119.296 5.6645e-05 114.124 1.88938 109.928 6.10805Z" fill="url(#paint3_linear_32_3)"/>
<g opacity="0.300003">
<g opacity="0.300003">
<path opacity="0.300003" d="M144.94 20.6134C144.94 13.3641 141.468 7.55744 136.476 3.97478L59.7309 90.8854L60.6443 91.9761C67.4536 98.7854 78.5896 98.6428 85.3989 91.8334L144.94 20.6134Z" fill="#5754F3"/>
</g>
</g>
<g opacity="0.5">
<g opacity="0.5">
<path opacity="0.5" d="M109.779 6.10823L49.8507 79.0949L52.9627 82.8082L122.872 0.0575611C118.24 0.364228 113.604 2.26023 109.779 6.10823Z" fill="white"/>
</g>
</g>
<defs>
<linearGradient id="paint0_linear_32_3" x1="127.503" y1="10.028" x2="127.503" y2="122.307" gradientUnits="userSpaceOnUse">
<stop stop-color="#3B00A0"/>
<stop offset="0.00694004" stop-color="#3B00A0"/>
<stop offset="0.42262" stop-color="#3C2DC1"/>
<stop offset="0.434418" stop-color="#3C2DC1"/>
<stop offset="1" stop-color="#00ECED"/>
</linearGradient>
<linearGradient id="paint1_linear_32_3" x1="18.3953" y1="10.028" x2="18.3953" y2="122.307" gradientUnits="userSpaceOnUse">
<stop stop-color="#3B00A0"/>
<stop offset="0.00694004" stop-color="#3B00A0"/>
<stop offset="0.42262" stop-color="#3C2DC1"/>
<stop offset="0.434418" stop-color="#3C2DC1"/>
<stop offset="1" stop-color="#00ECED"/>
</linearGradient>
<linearGradient id="paint2_linear_32_3" x1="12.381" y1="5.9498" x2="84.1938" y2="92.3739" gradientUnits="userSpaceOnUse">
<stop stop-color="#1972C1"/>
<stop offset="0.408302" stop-color="#5754F3" stop-opacity="0.92"/>
<stop offset="0.651042" stop-color="#5754F3"/>
</linearGradient>
<linearGradient id="paint3_linear_32_3" x1="65.2877" y1="87.6445" x2="133.469" y2="6.38724" gradientUnits="userSpaceOnUse">
<stop stop-color="#4A3FFB"/>
<stop offset="0.458333" stop-color="#4A3FFB" stop-opacity="0.95"/>
<stop offset="1" stop-color="#008AA8"/>
</linearGradient>
</defs>
</svg>
